<svg xmlns="http://www.w3.org/2000/svg" width="330" height="76" viewBox="0 0 330 76" role="img" aria-label="Facebook Page"><title>Facebook Page</title><style>
text{font-family:"SFMono-Regular",Consolas,"Liberation Mono",Menlo,monospace;white-space:pre}
.k{font-size:17px;font-weight:bold}.v{font-size:17px;fill:#e6edf3}.h{font-size:17px;font-weight:bold}
.a{font-size:5.6px}.a2{font-size:5.2px}.b{font-size:17px}.ty{font-size:24px;font-weight:bold}
.m{font-size:17px;font-weight:bold}.abt{font-size:22px;font-weight:bold}.n{font-size:17px;font-weight:bold}
.fi{animation:fi 12s infinite both}
@keyframes fi{0%{opacity:0}4%{opacity:1}88%{opacity:1}95%,100%{opacity:0}}
.pl{animation:pl 2.6s ease-in-out infinite;transform-box:fill-box;transform-origin:center}
@keyframes pl{0%,100%{transform:scale(1)}50%{transform:scale(1.14)}}
.loop{animation:loop 18s infinite}
.pulse{animation:pulse 2.4s ease-in-out infinite;transform-box:fill-box;transform-origin:center}
@keyframes pulse{0%,100%{transform:scale(.95)}50%{transform:scale(1.05)}}
@keyframes loop{0%,94%{opacity:1}98%,99.9%{opacity:0}100%{opacity:1}}
</style><defs><linearGradient id="rb" gradientUnits="userSpaceOnUse" x1="0" y1="0" x2="330" y2="0" spreadMethod="repeat"><stop offset="0" stop-color="#ff5f6d"/><stop offset=".2" stop-color="#ffc371"/><stop offset=".4" stop-color="#7ee787"/><stop offset=".6" stop-color="#58a6ff"/><stop offset=".8" stop-color="#bc8cff"/><stop offset="1" stop-color="#ff5f6d"/><animateTransform attributeName="gradientTransform" type="translate" from="0 0" to="330 0" dur="7s" repeatCount="indefinite"/></linearGradient><linearGradient id="bd" x1="0" y1="0" x2="1" y2="1"><stop offset="0" stop-color="#58a6ff"/><stop offset=".5" stop-color="#bc8cff"/><stop offset="1" stop-color="#ff7bb0"/></linearGradient><linearGradient id="pg" x1="0" y1="0" x2="1" y2="0"><stop offset="0" stop-color="#58a6ff"/><stop offset=".5" stop-color="#bc8cff"/><stop offset="1" stop-color="#ff7bb0"/></linearGradient><clipPath id="h"><rect x="60.0" y="31.0" width="159.6" height="24"><animate attributeName="width" values="0.0;0.0;8.4;16.8;25.2;33.6;42.0;50.4;58.8;67.2;75.6;84.0;92.4;100.8;109.2;117.6;126.0;134.4;142.8;151.2;159.6" keyTimes="0.0000;0.8188;0.8255;0.8322;0.8389;0.8456;0.8523;0.8591;0.8658;0.8725;0.8792;0.8859;0.8926;0.8993;0.9060;0.9128;0.9195;0.9262;0.9329;0.9396;0.9463" calcMode="discrete" dur="7.450s" fill="freeze"/></rect></clipPath></defs><g class="pulse" style="animation-delay:-0.93s"><g transform="translate(5,5)"><g><animate attributeName="opacity" values="0;0;1;1" keyTimes="0;0.7785;0.8188;1" dur="7.450s" fill="freeze"/><rect x="1" y="1" width="318" height="64" rx="12" fill="#161b22" stroke="#4a9bff" stroke-opacity=".55"/><g transform="translate(16.0,18.0) scale(1.2500)"><path d="M9.101 23.691v-7.98H6.627v-3.667h2.474v-1.58c0-4.085 1.848-5.978 5.858-5.978.401 0 .955.042 1.468.103a8.68 8.68 0 0 1 1.141.195v3.325a8.623 8.623 0 0 0-.653-.036 26.805 26.805 0 0 0-.733-.009c-.707 0-1.259.096-1.675.309a1.686 1.686 0 0 0-.679.622c-.258.42-.374.995-.374 1.752v1.297h3.919l-.386 2.103-.287 1.564h-3.246v8.245C19.396 23.238 24 18.179 24 12.044c0-6.627-5.373-12-12-12s-12 5.373-12 12c0 5.628 3.874 10.35 9.101 11.647Z" fill="#4a9bff"/></g><text class="n" fill="#4a9bff" x="60" y="27" style="font-size:16px">Facebook Page</text></g><text class="m" fill="#c9d1d9" x="60.0" y="47.0" textLength="159.6" lengthAdjust="spacing" clip-path="url(#h)" style="font-size:14px;font-weight:normal">/lamiakajalofficial</text><g opacity="0"><animate attributeName="opacity" values="0;1;0" keyTimes="0;0.8188;0.9463" calcMode="discrete" dur="7.450s" fill="freeze"/><rect width="8" height="18" fill="#7ee787" x="60.0" y="31.0"><animate attributeName="x" values="60.0;60.0;68.4;76.8;85.2;93.6;102.0;110.4;118.8;127.2;135.6;144.0;152.4;160.8;169.2;177.6;186.0;194.4;202.8;211.2;219.6" keyTimes="0.0000;0.8188;0.8255;0.8322;0.8389;0.8456;0.8523;0.8591;0.8658;0.8725;0.8792;0.8859;0.8926;0.8993;0.9060;0.9128;0.9195;0.9262;0.9329;0.9396;0.9463" calcMode="discrete" dur="7.450s" fill="freeze"/><animate attributeName="opacity" values=".9;0;.9" dur=".9s" repeatCount="indefinite"/></rect></g></g></g></svg>