<svg xmlns="http://www.w3.org/2000/svg" width="330" height="76" viewBox="0 0 330 76" role="img" aria-label="Instagram"><title>Instagram</title><style>
text{font-family:"SFMono-Regular",Consolas,"Liberation Mono",Menlo,monospace;white-space:pre}
.k{font-size:17px;font-weight:bold}.v{font-size:17px;fill:#e6edf3}.h{font-size:17px;font-weight:bold}
.a{font-size:5.6px}.a2{font-size:5.2px}.b{font-size:17px}.ty{font-size:24px;font-weight:bold}
.m{font-size:17px;font-weight:bold}.abt{font-size:22px;font-weight:bold}.n{font-size:17px;font-weight:bold}
.fi{animation:fi 12s infinite both}
@keyframes fi{0%{opacity:0}4%{opacity:1}88%{opacity:1}95%,100%{opacity:0}}
.pl{animation:pl 2.6s ease-in-out infinite;transform-box:fill-box;transform-origin:center}
@keyframes pl{0%,100%{transform:scale(1)}50%{transform:scale(1.14)}}
.loop{animation:loop 18s infinite}
.pulse{animation:pulse 2.4s ease-in-out infinite;transform-box:fill-box;transform-origin:center}
@keyframes pulse{0%,100%{transform:scale(.95)}50%{transform:scale(1.05)}}
@keyframes loop{0%,94%{opacity:1}98%,99.9%{opacity:0}100%{opacity:1}}
</style><defs><linearGradient id="rb" gradientUnits="userSpaceOnUse" x1="0" y1="0" x2="330" y2="0" spreadMethod="repeat"><stop offset="0" stop-color="#ff5f6d"/><stop offset=".2" stop-color="#ffc371"/><stop offset=".4" stop-color="#7ee787"/><stop offset=".6" stop-color="#58a6ff"/><stop offset=".8" stop-color="#bc8cff"/><stop offset="1" stop-color="#ff5f6d"/><animateTransform attributeName="gradientTransform" type="translate" from="0 0" to="330 0" dur="7s" repeatCount="indefinite"/></linearGradient><linearGradient id="bd" x1="0" y1="0" x2="1" y2="1"><stop offset="0" stop-color="#58a6ff"/><stop offset=".5" stop-color="#bc8cff"/><stop offset="1" stop-color="#ff7bb0"/></linearGradient><linearGradient id="pg" x1="0" y1="0" x2="1" y2="0"><stop offset="0" stop-color="#58a6ff"/><stop offset=".5" stop-color="#bc8cff"/><stop offset="1" stop-color="#ff7bb0"/></linearGradient><clipPath id="h"><rect x="60.0" y="31.0" width="92.4" height="24"><animate attributeName="width" values="0.0;0.0;8.4;16.8;25.2;33.6;42.0;50.4;58.8;67.2;75.6;84.0;92.4" keyTimes="0.0000;0.8376;0.8462;0.8547;0.8632;0.8718;0.8803;0.8889;0.8974;0.9060;0.9145;0.9231;0.9316" calcMode="discrete" dur="5.850s" fill="freeze"/></rect></clipPath></defs><g class="pulse" style="animation-delay:-0.19s"><g transform="translate(5,5)"><g><animate attributeName="opacity" values="0;0;1;1" keyTimes="0;0.7863;0.8376;1" dur="5.850s" fill="freeze"/><rect x="1" y="1" width="318" height="64" rx="12" fill="#161b22" stroke="#E4405F" stroke-opacity=".55"/><g transform="translate(16.0,18.0) scale(1.2500)"><path d="M7.0301.084c-1.2768.0602-2.1487.264-2.911.5634-.7888.3075-1.4575.72-2.1228 1.3877-.6652.6677-1.075 1.3368-1.3802 2.127-.2954.7638-.4956 1.6365-.552 2.914-.0564 1.2775-.0689 1.6882-.0626 4.947.0062 3.2586.0206 3.6671.0825 4.9473.061 1.2765.264 2.1482.5635 2.9107.308.7889.72 1.4573 1.388 2.1228.6679.6655 1.3365 1.0743 2.1285 1.38.7632.295 1.6361.4961 2.9134.552 1.2773.056 1.6884.069 4.9462.0627 3.2578-.0062 3.668-.0207 4.9478-.0814 1.28-.0607 2.147-.2652 2.9098-.5633.7889-.3086 1.4578-.72 2.1228-1.3881.665-.6682 1.0745-1.3378 1.3795-2.1284.2957-.7632.4966-1.636.552-2.9124.056-1.2809.0692-1.6898.063-4.948-.0063-3.2583-.021-3.6668-.0817-4.9465-.0607-1.2797-.264-2.1487-.5633-2.9117-.3084-.7889-.72-1.4568-1.3876-2.1228C21.2982 1.33 20.628.9208 19.8378.6165 19.074.321 18.2017.1197 16.9244.0645 15.6471.0093 15.236-.005 11.977.0014 8.718.0076 8.31.0215 7.0301.0839m.1402 21.6932c-1.17-.0509-1.8053-.2453-2.2287-.408-.5606-.216-.96-.4771-1.3819-.895-.422-.4178-.6811-.8186-.9-1.378-.1644-.4234-.3624-1.058-.4171-2.228-.0595-1.2645-.072-1.6442-.079-4.848-.007-3.2037.0053-3.583.0607-4.848.05-1.169.2456-1.805.408-2.2282.216-.5613.4762-.96.895-1.3816.4188-.4217.8184-.6814 1.3783-.9003.423-.1651 1.0575-.3614 2.227-.4171 1.2655-.06 1.6447-.072 4.848-.079 3.2033-.007 3.5835.005 4.8495.0608 1.169.0508 1.8053.2445 2.228.408.5608.216.96.4754 1.3816.895.4217.4194.6816.8176.9005 1.3787.1653.4217.3617 1.056.4169 2.2263.0602 1.2655.0739 1.645.0796 4.848.0058 3.203-.0055 3.5834-.061 4.848-.051 1.17-.245 1.8055-.408 2.2294-.216.5604-.4763.96-.8954 1.3814-.419.4215-.8181.6811-1.3783.9-.4224.1649-1.0577.3617-2.2262.4174-1.2656.0595-1.6448.072-4.8493.079-3.2045.007-3.5825-.006-4.848-.0608M16.953 5.5864A1.44 1.44 0 1 0 18.39 4.144a1.44 1.44 0 0 0-1.437 1.4424M5.8385 12.012c.0067 3.4032 2.7706 6.1557 6.173 6.1493 3.4026-.0065 6.157-2.7701 6.1506-6.1733-.0065-3.4032-2.771-6.1565-6.174-6.1498-3.403.0067-6.156 2.771-6.1496 6.1738M8 12.0077a4 4 0 1 1 4.008 3.9921A3.9996 3.9996 0 0 1 8 12.0077" fill="#E4405F"/></g><text class="n" fill="#E4405F" x="60" y="27" style="font-size:16px">Instagram</text></g><text class="m" fill="#c9d1d9" x="60.0" y="47.0" textLength="92.4" lengthAdjust="spacing" clip-path="url(#h)" style="font-size:14px;font-weight:normal">@lamiakajal</text><g opacity="0"><animate attributeName="opacity" values="0;1;0" keyTimes="0;0.8376;0.9316" calcMode="discrete" dur="5.850s" fill="freeze"/><rect width="8" height="18" fill="#7ee787" x="60.0" y="31.0"><animate attributeName="x" values="60.0;60.0;68.4;76.8;85.2;93.6;102.0;110.4;118.8;127.2;135.6;144.0;152.4" keyTimes="0.0000;0.8376;0.8462;0.8547;0.8632;0.8718;0.8803;0.8889;0.8974;0.9060;0.9145;0.9231;0.9316" calcMode="discrete" dur="5.850s" fill="freeze"/><animate attributeName="opacity" values=".9;0;.9" dur=".9s" repeatCount="indefinite"/></rect></g></g></g></svg>